<svg 
 xmlns="http://www.w3.org/2000/svg"
 xmlns:xlink="http://www.w3.org/1999/xlink"
 width="7.764in" height="4.542in">
<path fill-rule="evenodd"  fill="rgb(255, 255, 255)"
 d="M241.970,171.897 C243.781,171.733 254.809,170.909 254.809,170.909 L265.673,179.801 L297.277,185.728 L324.931,188.692 L352.585,191.656 L386.164,182.764 L406.905,177.825 L426.657,188.692 L442.459,201.535 L446.410,214.378 L449.373,241.051 L439.496,265.749 L422.707,292.423 L414.806,306.254 L410.855,327.000 L437.521,325.024 L436.534,303.290 L462.212,267.725 L482.952,245.991 L489.866,215.366 L489.866,190.668 L496.779,178.813 L513.569,207.462 L524.433,232.160 L533.322,253.894 L531.346,269.701 L532.334,288.471 L527.396,307.242 L528.383,321.073 L559.000,320.085 C559.000,320.085 554.226,309.382 554.062,306.254 C553.897,303.125 553.074,285.508 553.074,285.508 L551.099,274.640 L548.136,202.523 L550.111,174.861 L549.124,158.066 L547.148,126.453 L546.161,74.094 L547.148,42.480 L538.260,17.782 L521.470,3.952 L496.779,1.976 L479.989,4.940 L467.150,0.988 L433.571,5.927 L400.979,5.927 L382.214,7.903 L354.560,3.952 L339.746,7.903 L285.426,0.000 L260.735,1.976 L250.859,0.988 L238.019,1.976 L208.390,0.988 L184.687,1.976 L154.071,12.843 L123.454,24.698 C123.454,24.698 110.450,25.850 109.627,25.686 C108.804,25.521 104.689,32.601 104.689,32.601 L95.800,29.637 L81.973,30.625 L69.134,29.637 C69.134,29.637 49.217,11.361 50.369,11.855 C51.521,12.349 38.518,22.722 38.518,22.722 L38.518,32.601 L33.580,34.577 L23.703,33.589 L17.777,44.456 L22.716,56.311 L20.740,76.069 L14.814,96.816 L8.889,105.707 L0.000,119.538 L5.926,132.381 L17.777,143.248 L23.703,139.296 L34.567,131.393 L42.468,128.429 L67.159,124.477 L81.973,112.622 L87.899,114.598 L112.590,135.344 L121.479,154.115 L126.417,168.934 L139.256,182.764 L145.182,193.631 L175.799,193.631 L179.749,202.523 L179.749,225.245 L180.737,245.003 L183.700,258.834 L180.737,269.701 L178.761,276.616 L174.811,286.495 L171.848,300.326 L165.922,325.024 L178.761,324.036 L194.564,325.024 L190.613,310.205 L184.687,300.326 L193.576,269.701 L197.527,264.761 L198.514,248.955 L201.477,245.003 L203.452,216.353 L209.378,216.353 L216.292,251.918 L223.205,259.822 L218.267,293.411 L213.329,307.242 L213.329,314.157 L211.353,326.012 L237.032,327.000 L235.057,309.218 L238.019,297.363 L239.007,281.556 L235.057,259.822 L238.019,228.208 L239.007,187.704 C239.007,187.704 240.159,172.062 241.970,171.897 ZM531.346,63.227 L541.223,70.142 L541.223,121.514 L542.210,163.994 L536.284,164.982 L533.322,154.115 L525.420,144.236 L529.371,123.489 L528.383,77.057 L533.322,70.142 L531.346,63.227 Z"/>
</svg>